<mxfile host="app.diagrams.net" modified="2024-07-30T01:16:49.121Z" agent="Mozilla/5.0 (Windows NT 10.0; Win64; x64) AppleWebKit/537.36 (KHTML, like Gecko) Chrome/126.0.0.0 Safari/537.36 Edg/126.0.0.0" version="24.6.4" etag="kWD-vvHsvoqc4mLAz_LW" type="github">
  <diagram name="第 1 页" id="c5W6eQkA04ybcLQiyayG">
    <mxGraphModel>
      <root>
        <mxCell id="0" />
        <mxCell id="1" parent="0" />
      </root>
    </mxGraphModel>
  </diagram>
</mxfile>
